<mxfile host="Electron" modified="2023-10-29T18:58:36.446Z" agent="Mozilla/5.0 (X11; Linux x86_64) AppleWebKit/537.36 (KHTML, like Gecko) draw.io/22.0.3 Chrome/114.0.5735.289 Electron/25.8.4 Safari/537.36" etag="yGPDBbe3yQM8TufHNLe7" version="22.0.3" type="device">
  <diagram name="Page-1" id="f1Zl4HeaJMzdTWL9YxTt">
    <mxGraphModel dx="1434" dy="980" grid="1" gridSize="10" guides="1" tooltips="1" connect="1" arrows="1" fold="1" page="1" pageScale="1" pageWidth="850" pageHeight="1100" math="0" shadow="0">
      <root>
        <mxCell id="0" />
        <mxCell id="1" parent="0" />
        <mxCell id="qGpvqvueoyaIs6uFOPyC-1" value="Gather Data" style="rounded=1;whiteSpace=wrap;html=1;aspect=fixed;fillColor=#dae8fc;strokeColor=#6c8ebf;" vertex="1" parent="1">
          <mxGeometry x="40" y="280" width="240" height="120" as="geometry" />
        </mxCell>
        <mxCell id="qGpvqvueoyaIs6uFOPyC-2" value="Preprocess Data" style="rounded=1;whiteSpace=wrap;html=1;aspect=fixed;fillColor=#dae8fc;strokeColor=#6c8ebf;" vertex="1" parent="1">
          <mxGeometry x="400" y="280" width="240" height="120" as="geometry" />
        </mxCell>
        <mxCell id="qGpvqvueoyaIs6uFOPyC-3" value="Train Neural Network" style="rounded=1;whiteSpace=wrap;html=1;aspect=fixed;fillColor=#dae8fc;strokeColor=#6c8ebf;" vertex="1" parent="1">
          <mxGeometry x="760" y="280" width="240" height="120" as="geometry" />
        </mxCell>
        <mxCell id="qGpvqvueoyaIs6uFOPyC-4" value="" style="shape=flexArrow;endArrow=classic;html=1;rounded=0;fillColor=#dae8fc;strokeColor=#6c8ebf;" edge="1" parent="1">
          <mxGeometry width="50" height="50" relative="1" as="geometry">
            <mxPoint x="297" y="340" as="sourcePoint" />
            <mxPoint x="387" y="340" as="targetPoint" />
          </mxGeometry>
        </mxCell>
        <mxCell id="qGpvqvueoyaIs6uFOPyC-5" value="" style="shape=flexArrow;endArrow=classic;html=1;rounded=0;fillColor=#dae8fc;strokeColor=#6c8ebf;" edge="1" parent="1">
          <mxGeometry width="50" height="50" relative="1" as="geometry">
            <mxPoint x="660" y="339.5" as="sourcePoint" />
            <mxPoint x="750" y="339.5" as="targetPoint" />
          </mxGeometry>
        </mxCell>
      </root>
    </mxGraphModel>
  </diagram>
</mxfile>
